<svg width="24" height="24" viewBox="0 0 24 24" fill="none" xmlns="http://www.w3.org/2000/svg">
  <rect x="3" y="7" width="14" height="10" rx="2" stroke="currentColor" stroke-width="2" fill="none"/>
  <circle cx="7" cy="11" r="1.5" stroke="currentColor" stroke-width="1.5" fill="none"/>
  <path d="M5 15v-1a2 2 0 0 1 2-2h0a2 2 0 0 1 2 2v1" stroke="currentColor" stroke-width="1.5" fill="none"/>
  <rect x="11" y="9" width="4" height="1" rx="0.5" fill="currentColor"/>
  <rect x="11" y="11" width="5" height="1" rx="0.5" fill="currentColor"/>
  <rect x="11" y="13" width="3" height="1" rx="0.5" fill="currentColor"/>
  <path d="M18 5l2-2 2 2-2 2-2-2z" stroke="currentColor" stroke-width="2" fill="none"/>
  <circle cx="20" cy="3" r="1" fill="currentColor"/>
  <path d="M19 7v2" stroke="currentColor" stroke-width="1.5"/>
</svg>
