<svg width="24" height="24" viewBox="0 0 24 24" fill="none" xmlns="http://www.w3.org/2000/svg">
  <ellipse cx="12" cy="5" rx="8" ry="3" stroke="currentColor" stroke-width="2" fill="none"/>
  <path d="M4 5v6c0 1.66 3.58 3 8 3s8-1.34 8-3V5" stroke="currentColor" stroke-width="2" fill="none"/>
  <path d="M4 11v6c0 1.66 3.58 3 8 3s8-1.34 8-3v-6" stroke="currentColor" stroke-width="2" fill="none"/>
  <path d="M17 19a3 3 0 1 1-6 0 3 3 0 0 1 6 0z" stroke="currentColor" stroke-width="2" fill="none"/>
  <path d="M13 19l1.5-1.5" stroke="currentColor" stroke-width="2"/>
  <path d="M15 19l-1.5 1.5" stroke="currentColor" stroke-width="2"/>
  <path d="M14 16.5v5" stroke="currentColor" stroke-width="2"/>
</svg>
