<svg width="24" height="24" viewBox="0 0 24 24" fill="none" xmlns="http://www.w3.org/2000/svg">
  <circle cx="9" cy="7" r="2" stroke="currentColor" stroke-width="2" fill="none"/>
  <circle cx="15" cy="7" r="2" stroke="currentColor" stroke-width="2" fill="none"/>
  <path d="M5 21v-2a4 4 0 0 1 4-4h2a4 4 0 0 1 4 4v2" stroke="currentColor" stroke-width="2" fill="none"/>
  <circle cx="21" cy="9" r="2" stroke="currentColor" stroke-width="1.5" fill="none"/>
  <path d="M18 18v-1a3 3 0 0 1 3-3h0a3 3 0 0 1 3 3v1" stroke="currentColor" stroke-width="1.5" fill="none"/>
  <path d="M12 11l6-2" stroke="currentColor" stroke-width="1.5"/>
  <path d="M17 13l-2 2 2 2" stroke="currentColor" stroke-width="1.5" fill="none"/>
  <circle cx="3" cy="12" r="1.5" stroke="currentColor" stroke-width="1.5" fill="none"/>
  <path d="M3 12h6" stroke="currentColor" stroke-width="1.5"/>
</svg>
