<svg xmlns="http://www.w3.org/2000/svg" width="32" height="32" viewBox="0 0 32 32">
  <defs>
    <linearGradient id="shieldGrad" x1="0%" y1="0%" x2="0%" y2="100%">
      <stop offset="0%" stop-color="#002ebf" stop-opacity="0.15"/>
      <stop offset="100%" stop-color="#002ebf" stop-opacity="0.05"/>
    </linearGradient>
  </defs>

  <!-- Shield Background -->
  <path d="M16,30 L15.5,29.8 C13,28.5 8,26 6,24 C2,20 1.5,8 1.5,6 L1.5,5 L16,1 L30.5,5 L30.5,6 C30.5,8 30,20 26,24 C24,26 19,28.5 16.5,29.8 Z"
        fill="url(#shieldGrad)"
        stroke="#002ebf"
        stroke-width="1"/>

  <!-- Shield Outline -->
  <path d="M16,28 L15.6,27.8 C13.4,26.6 9.2,24.4 7.4,22.8 C4.2,19.8 3.8,9.2 3.8,7.4 L3.7,6.4 L16,3.2 L28.3,6.4 L28.2,7.4 C28.2,9.2 27.8,19.8 24.6,22.8 C22.8,24.4 18.6,26.6 16.4,27.8 Z"
        fill="none"
        stroke="#002ebf"
        stroke-width="1.2"/>

  <!-- Simplified Cube Structure -->
  <!-- Top Cube -->
  <g transform="translate(16,12) scale(0.7)">
    <path d="M0,-3 L2.5,-1.5 L0,0 L-2.5,-1.5 Z" fill="#002ebf"/>
    <path d="M0,0 L2.5,-1.5 L2.5,1.5 L0,3 Z" fill="#001a80"/>
    <path d="M0,0 L0,3 L-2.5,1.5 L-2.5,-1.5 Z" fill="#0033cc"/>
  </g>

  <!-- Left Cube -->
  <g transform="translate(11,16) scale(0.5)">
    <path d="M0,-2 L2,-1 L0,0 L-2,-1 Z" fill="#dfaa00"/>
    <path d="M0,0 L2,-1 L2,1 L0,2 Z" fill="#cc8800"/>
    <path d="M0,0 L0,2 L-2,1 L-2,-1 Z" fill="#e6aa00"/>
  </g>

  <!-- Right Cube -->
  <g transform="translate(21,16) scale(0.5)">
    <path d="M0,-2 L2,-1 L0,0 L-2,-1 Z" fill="#002ebf"/>
    <path d="M0,0 L2,-1 L2,1 L0,2 Z" fill="#001a80"/>
    <path d="M0,0 L0,2 L-2,1 L-2,-1 Z" fill="#0033cc"/>
  </g>

  <!-- Bottom Center Cube -->
  <g transform="translate(16,20) scale(0.4)">
    <path d="M0,-1.5 L1.5,-0.75 L0,0 L-1.5,-0.75 Z" fill="#dfaa00"/>
    <path d="M0,0 L1.5,-0.75 L1.5,0.75 L0,1.5 Z" fill="#cc8800"/>
    <path d="M0,0 L0,1.5 L-1.5,0.75 L-1.5,-0.75 Z" fill="#e6aa00"/>
  </g>

  <!-- Connecting lines -->
  <g stroke="#002ebf" stroke-width="0.5" opacity="0.4" fill="none">
    <line x1="16" y1="12" x2="11" y2="16"/>
    <line x1="16" y1="12" x2="21" y2="16"/>
    <line x1="11" y1="16" x2="16" y2="20"/>
    <line x1="21" y1="16" x2="16" y2="20"/>
  </g>
</svg>
