<svg xmlns="http://www.w3.org/2000/svg" width="80" height="80" viewBox="0 0 80 80">
  <defs>
    <linearGradient id="shieldGradient" x1="0%" y1="0%" x2="0%" y2="100%">
      <stop offset="0%" stop-color="#002ebf" stop-opacity="0.1"/>
      <stop offset="100%" stop-color="#002ebf" stop-opacity="0.05"/>
    </linearGradient>
    <linearGradient id="cubeGradient1" x1="0%" y1="0%" x2="100%" y2="100%">
      <stop offset="0%" stop-color="#002ebf"/>
      <stop offset="100%" stop-color="#0040ff"/>
    </linearGradient>
    <linearGradient id="cubeGradient2" x1="0%" y1="0%" x2="100%" y2="100%">
      <stop offset="0%" stop-color="#dfaa00"/>
      <stop offset="100%" stop-color="#ffbc1a"/>
    </linearGradient>
    <filter id="dropShadow" x="-20%" y="-20%" width="140%" height="140%">
      <feDropShadow dx="0" dy="2" stdDeviation="2" flood-color="#000" flood-opacity="0.1"/>
    </filter>
  </defs>

  <!-- Shield Background -->
  <path d="M40,75 L39,74.5 C35,72.5 25,67 20,63 C10,55 8,25 8,20 L8,18 L40,8 L72,18 L72,20 C72,25 70,55 60,63 C55,67 45,72.5 41,74.5 Z"
        fill="url(#shieldGradient)"
        stroke="#002ebf"
        stroke-width="1.5"
        filter="url(#dropShadow)"/>

  <!-- Main Shield Outline -->
  <path d="M40,70 L39.2,69.6 C35.8,67.8 27.2,63.8 22.8,60.4 C14.4,53.6 12.6,28.2 12.6,23.8 L12.5,22.2 L40,13.2 L67.5,22.2 L67.4,23.8 C67.4,28.2 65.6,53.6 57.2,60.4 C52.8,63.8 44.2,67.8 40.8,69.6 Z"
        fill="none"
        stroke="#002ebf"
        stroke-width="2"/>

  <!-- Cube Array Inside Shield -->

  <!-- Top Center Cube (Primary Blue) -->
  <g transform="translate(40,25) scale(0.8)">
    <path d="M0,-8 L6,-4 L0,0 L-6,-4 Z" fill="url(#cubeGradient1)"/>
    <path d="M0,0 L6,-4 L6,4 L0,8 Z" fill="#001a80"/>
    <path d="M0,0 L0,8 L-6,4 L-6,-4 Z" fill="#0033cc"/>
  </g>

  <!-- Left Cube (Secondary Yellow) -->
  <g transform="translate(25,35) scale(0.7)">
    <path d="M0,-6 L5,-3 L0,0 L-5,-3 Z" fill="url(#cubeGradient2)"/>
    <path d="M0,0 L5,-3 L5,3 L0,6 Z" fill="#cc8800"/>
    <path d="M0,0 L0,6 L-5,3 L-5,-3 Z" fill="#e6aa00"/>
  </g>

  <!-- Right Cube (Primary Blue) -->
  <g transform="translate(55,35) scale(0.7)">
    <path d="M0,-6 L5,-3 L0,0 L-5,-3 Z" fill="url(#cubeGradient1)"/>
    <path d="M0,0 L5,-3 L5,3 L0,6 Z" fill="#001a80"/>
    <path d="M0,0 L0,6 L-5,3 L-5,-3 Z" fill="#0033cc"/>
  </g>

  <!-- Bottom Left Cube (Secondary Yellow) -->
  <g transform="translate(30,50) scale(0.6)">
    <path d="M0,-5 L4,-2.5 L0,0 L-4,-2.5 Z" fill="url(#cubeGradient2)"/>
    <path d="M0,0 L4,-2.5 L4,2.5 L0,5 Z" fill="#cc8800"/>
    <path d="M0,0 L0,5 L-4,2.5 L-4,-2.5 Z" fill="#e6aa00"/>
  </g>

  <!-- Bottom Right Cube (Primary Blue) -->
  <g transform="translate(50,50) scale(0.6)">
    <path d="M0,-5 L4,-2.5 L0,0 L-4,-2.5 Z" fill="url(#cubeGradient1)"/>
    <path d="M0,0 L4,-2.5 L4,2.5 L0,5 Z" fill="#001a80"/>
    <path d="M0,0 L0,5 L-4,2.5 L-4,-2.5 Z" fill="#0033cc"/>
  </g>

  <!-- Center Bottom Cube (Secondary Yellow) -->
  <g transform="translate(40,55) scale(0.5)">
    <path d="M0,-4 L3,-2 L0,0 L-3,-2 Z" fill="url(#cubeGradient2)"/>
    <path d="M0,0 L3,-2 L3,2 L0,4 Z" fill="#cc8800"/>
    <path d="M0,0 L0,4 L-3,2 L-3,-2 Z" fill="#e6aa00"/>
  </g>

  <!-- Connecting Lines for Structure -->
  <g stroke="#002ebf" stroke-width="1" opacity="0.3" fill="none">
    <line x1="40" y1="25" x2="25" y2="35"/>
    <line x1="40" y1="25" x2="55" y2="35"/>
    <line x1="25" y1="35" x2="30" y2="50"/>
    <line x1="55" y1="35" x2="50" y2="50"/>
    <line x1="30" y1="50" x2="40" y2="55"/>
    <line x1="50" y1="50" x2="40" y2="55"/>
  </g>
</svg>
